<svg xmlns="http://www.w3.org/2000/svg" viewBox="0 0 288.04 156.35"><defs><style>.cls-1,.cls-2{fill:#fff;}.cls-1{stroke:#000;stroke-linecap:round;stroke-linejoin:round;stroke-width:8px;}</style></defs><g id="Layer_2" data-name="Layer 2"><g id="Layer_1-2" data-name="Layer 1"><rect class="cls-1" x="54" y="4" width="36" height="18"/><rect class="cls-1" x="198" y="4" width="36" height="18"/><path d="M72.08,30a28,28,0,0,1,24.2,42l-36,62.33a28,28,0,0,1-48.49-28L47.8,44A28.11,28.11,0,0,1,72.07,30h0m0-8a36,36,0,0,0-31.2,18l-36,62.33A36,36,0,0,0,18,151.51h0a36,36,0,0,0,49.18-13.15l36-62.34A36,36,0,0,0,90.05,26.84h0a35.8,35.8,0,0,0-18-4.84Z"/><rect class="cls-1" x="72" y="22" width="144" height="72"/><circle class="cls-2" cx="72" cy="58" r="41"/><path d="M72,21A37,37,0,1,1,35,58,37,37,0,0,1,72,21m0-8a45,45,0,1,0,45,45A45,45,0,0,0,72,13Z"/><line class="cls-1" x1="54" y1="58" x2="90" y2="58"/><line class="cls-1" x1="72" y1="40" x2="72" y2="76"/><line class="cls-1" x1="126" y1="40" x2="135" y2="40"/><line class="cls-1" x1="153" y1="40" x2="162" y2="40"/><line class="cls-1" x1="153" y1="40" x2="162" y2="40"/><path d="M216,30a28.11,28.11,0,0,1,24.28,14l36,62.34a28,28,0,1,1-48.48,28L191.76,72A28,28,0,0,1,216,30m0-8a35.82,35.82,0,0,0-18,4.84h0A36,36,0,0,0,184.84,76l36,62.34a36,36,0,0,0,49.18,13.15h0a36,36,0,0,0,13.16-49.19L247.17,40A36,36,0,0,0,216,22Z"/><circle class="cls-2" cx="216" cy="58" r="41"/><path d="M216,21a37,37,0,1,1-37,37,37,37,0,0,1,37-37m0-8a45,45,0,1,0,45,45,45,45,0,0,0-45-45Z"/><circle class="cls-1" cx="216.01" cy="40.01" r="0.5"/><circle class="cls-1" cx="198.01" cy="58.01" r="0.5"/><circle class="cls-1" cx="234.01" cy="58.01" r="0.5"/><circle class="cls-1" cx="216.01" cy="76.01" r="0.5"/></g></g></svg>