<svg xmlns="http://www.w3.org/2000/svg" viewBox="0 0 144 216"><defs><style>.cls-1{fill:#fff;}</style></defs><g id="Layer_2" data-name="Layer 2"><g id="Layer_1-2" data-name="Layer 1"><path d="M60,8V136H36.54C20.8,136,8,122.23,8,105.31V38.69C8,21.77,20.8,8,36.54,8H60m8-8H36.54C16.36,0,0,17.32,0,38.69v66.62C0,126.68,16.36,144,36.54,144H68V0Z"/><circle cx="36" cy="41.5" r="13"/><path d="M36,29A12.5,12.5,0,1,1,23.5,41.5,12.52,12.52,0,0,1,36,29m0-1A13.5,13.5,0,1,0,49.5,41.5,13.49,13.49,0,0,0,36,28Z"/><path d="M80,212V76h27.46C125.4,76,140,91.56,140,110.69v66.62c0,19.13-14.6,34.69-32.54,34.69Z"/><path d="M107.46,80C123.2,80,136,93.77,136,110.69v66.62c0,16.92-12.8,30.69-28.54,30.69H84V80h23.46m0-8H76V216h31.46c20.18,0,36.54-17.32,36.54-38.69V110.69C144,89.32,127.64,72,107.46,72Z"/><circle class="cls-1" cx="110" cy="157.5" r="13"/><path d="M110,145a12.5,12.5,0,1,1-12.5,12.5A12.52,12.52,0,0,1,110,145m0-1a13.5,13.5,0,1,0,13.5,13.5A13.49,13.49,0,0,0,110,144Z"/></g></g></svg>