<svg xmlns="http://www.w3.org/2000/svg" viewBox="0 0 127.77 125.79"><g id="Layer_2" data-name="Layer 2"><g id="Layer_1-2" data-name="Layer 1"><path d="M61.21,121.74a59.42,59.42,0,0,1-37.55-15.59,8.78,8.78,0,0,0,6.68-7.06l-.06.18c.49-2.36.87-10.9.25-52.22a3.83,3.83,0,0,0-.2-1.17c-1.26-3.89-5.32-6.6-9.88-6.6a10.93,10.93,0,0,0-1.15.06l-.35,0a24.43,24.43,0,0,0-13,7.4,61,61,0,0,1,29-37.63,26.27,26.27,0,0,0-.81,14c1.55,6.55,5.82,10.46,11.43,10.46h0a12.34,12.34,0,0,0,1.8-.14c-.09,22.18-.25,56.51-.28,58.08a4.12,4.12,0,0,0,.38,1.85c2.59,5.46,7.13,8.46,12.79,8.46,6.88,0,14-4.43,18.42-8.58a4,4,0,0,0,1.26-2.93v-.24c0-2-.05-15.16-.1-27.86,0-6.36-.07-12.59-.1-17.23,0-2.33,0-4.26-.06-5.6,0-.49,0-1.05-.06-1.62a10.8,10.8,0,0,0-.71-5.65,3.8,3.8,0,0,0,1.33.23,4,4,0,0,0,2.93-1.27c2.64-2.83,9.78-6.09,17.16-7.64a16.58,16.58,0,0,0-2.61,7.89s0,.17,0,.25c0,18.86-.14,54.86-.23,57.48a4,4,0,0,0,.74,2.69,9.15,9.15,0,0,0,7.64,4h0c3.52,0,7.25-1.93,10.75-4.76A60,60,0,0,1,91.9,114.78l-10.79-8.9a4,4,0,0,0-5.48.36Z"/><path d="M29.48,17.58A27.11,27.11,0,0,0,30.19,24C32,31.54,36.88,36.49,43.3,37.41c-.09,20.17-.24,52.12-.27,54a8,8,0,0,0,.77,3.65C47,101.9,53,105.82,60.2,105.82c10.13,0,18.76-7.4,21.17-9.67a8,8,0,0,0,2.51-5.85v-.25c0-2,0-15.17-.1-27.87,0-6.35-.07-12.58-.1-17.23,0-2.34,0-4.28-.06-5.63,0-.64,0-1.16,0-1.53a12.88,12.88,0,0,0,.07-2.24A8,8,0,0,0,86,33.8c1.22-1.31,4.15-2.93,7.79-4.3-.07.52-.12,1.05-.15,1.58h0c0,.17,0,.34,0,.51,0,25.58-.15,54-.23,57.18a7.93,7.93,0,0,0,.21,2.51A8,8,0,0,0,95,94.15a13.18,13.18,0,0,0,10.24,5.62A56.36,56.36,0,0,1,92.35,110l-8.7-7.18a8,8,0,0,0-11,.72L59.57,117.63a55.34,55.34,0,0,1-29-10.92A12.57,12.57,0,0,0,34,100.94c.73-2.08.92-6.46.78-28.87-.08-12.5-.27-25-.27-25.08a8.15,8.15,0,0,0-.39-2.35c-1.82-5.6-7.32-9.36-13.69-9.36-.52,0-1.05,0-1.57.08-.23,0-.46.06-.69.1A28.43,28.43,0,0,0,14,36.63,57,57,0,0,1,29.48,17.58M47.05,0l-.29,0C17.07,8.05-3.84,38.43.59,70.12l.06-.24c0-11.21,7.49-24.31,19.07-26.56a5.85,5.85,0,0,1,.73,0c2.59,0,5.29,1.39,6.08,3.83,0,0,.75,49.61-.12,51.24-.61,3.2-3.41,4.25-6.36,4.25a14.49,14.49,0,0,1-6.48-1.55l.15.24a63.48,63.48,0,0,0,49.22,24.5l.21-.27L78.56,109,91.1,119.3l.28.2a63.78,63.78,0,0,0,36.26-49.4l.12-.43c-1.69,5.72-13.87,22.11-22,22.11a5.24,5.24,0,0,1-4.41-2.38h0c.13-.17.25-57.84.25-57.84C102,25.67,106.71,21,112,18.92l.07-.12a25.63,25.63,0,0,0-3.82-.27c-9.94,0-23.4,4.78-28.09,9.81a15.46,15.46,0,0,0-9.39-2.84c-.71,0-1.42,0-2.12.11,2.28,1,7.9,7.61,6.9,11.72h0c.15,0,.32,52.93.32,53h0c-4,3.78-10.21,7.49-15.68,7.49-3.69,0-7.05-1.68-9.17-6.17,0-.06.31-63.91.31-63.91a11.82,11.82,0,0,1-5.83,1.83c-10.9,0-11-23.3,1.54-29.57Zm80.71,69.67h0Z"/></g></g></svg>