<svg xmlns="http://www.w3.org/2000/svg" viewBox="0 0 193.21 193.21"><defs><style>.cls-1{fill:none;stroke:#000;stroke-linecap:round;stroke-linejoin:round;stroke-width:8px;}</style></defs><g id="Layer_2" data-name="Layer 2"><g id="Layer_1-2" data-name="Layer 1"><path class="cls-1" d="M123.25,139.11v43.31a6.8,6.8,0,0,1-6.8,6.79H77.12a6.79,6.79,0,0,1-6.79-6.79V139.11a6.76,6.76,0,0,1,2-4.8L92,114.64a6.8,6.8,0,0,1,9.61,0l19.67,19.67A6.8,6.8,0,0,1,123.25,139.11Z"/><path class="cls-1" d="M123.07,54.1V10.79A6.79,6.79,0,0,0,116.27,4H76.94a6.79,6.79,0,0,0-6.79,6.79V54.1a6.78,6.78,0,0,0,2,4.81L91.8,78.57a6.78,6.78,0,0,0,9.61,0l19.67-19.66A6.82,6.82,0,0,0,123.07,54.1Z"/><path class="cls-1" d="M54.1,122.89H10.79A6.79,6.79,0,0,1,4,116.09V76.76A6.79,6.79,0,0,1,10.79,70H54.1a6.82,6.82,0,0,1,4.81,2L78.57,91.63a6.77,6.77,0,0,1,0,9.6L58.91,120.9A6.82,6.82,0,0,1,54.1,122.89Z"/><path class="cls-1" d="M139.11,70h43.31a6.79,6.79,0,0,1,6.79,6.79v39.33a6.79,6.79,0,0,1-6.79,6.8H139.11a6.8,6.8,0,0,1-4.8-2l-19.67-19.67a6.79,6.79,0,0,1,0-9.6L134.31,72A6.8,6.8,0,0,1,139.11,70Z"/></g></g></svg>