<svg xmlns="http://www.w3.org/2000/svg" viewBox="0 0 129 130.11"><defs><style>.cls-1{fill:none;stroke:#000;stroke-miterlimit:10;stroke-width:8px;}</style></defs><g id="Layer_2" data-name="Layer 2"><g id="Layer_1-2" data-name="Layer 1"><polygon class="cls-1" points="4 34.78 4 95.28 14.08 100.32 44.33 75.11 94.75 125.53 125 115.45 125 14.62 94.75 4.53 44.33 49.91 14.08 29.74 4 34.78"/><polygon points="18.08 54.52 28.59 65.03 18.08 75.54 18.08 54.52"/><path d="M22.08,64.18l.86.85-.86.85v-1.7m-8-19.32V85.2L34.25,65,14.08,44.86Z"/><polygon points="70.75 65.03 90.75 48.36 90.75 81.7 70.75 65.03"/><path d="M86.75,56.9V73.16L77,65l9.75-8.13m8-17.08L64.5,65,94.75,90.24V39.82Z"/></g></g></svg>