<svg id="Layer_1" data-name="Layer 1" xmlns="http://www.w3.org/2000/svg" viewBox="0 0 550 618.6"><defs><style>.cls-1{fill:#313131;}.cls-2,.cls-3,.cls-4{fill:#fff;}.cls-2,.cls-4{stroke:#000;}.cls-2,.cls-4,.cls-5{stroke-miterlimit:10;}.cls-2{stroke-width:50px;}.cls-4{stroke-width:100px;}.cls-5{fill:#ca3e47;stroke:#ca3e47;stroke-width:10px;}</style></defs><title>Ericube</title><path class="cls-1" d="M495.65,735.16l221.7,128a53.31,53.31,0,0,0,53.3,0l221.7-128A53.3,53.3,0,0,0,1019,689V433a53.3,53.3,0,0,0-26.65-46.16l-221.7-128a53.31,53.31,0,0,0-53.3,0l-221.7,128A53.3,53.3,0,0,0,469,433V689A53.3,53.3,0,0,0,495.65,735.16Z" transform="translate(-469 -251.7)"/><path class="cls-2" d="M744,561" transform="translate(-469 -251.7)"/><path class="cls-2" d="M744,561" transform="translate(-469 -251.7)"/><path class="cls-2" d="M754.25,487.24" transform="translate(-469 -251.7)"/><path class="cls-3" d="M564.52,689.47l158,91.2a43,43,0,0,0,43,0l158-91.2A43,43,0,0,0,945,652.2V469.8a43,43,0,0,0-21.52-37.27l-158-91.2a43,43,0,0,0-43,0l-158,91.2A43,43,0,0,0,543,469.8V652.2A43,43,0,0,0,564.52,689.47Z" transform="translate(-469 -251.7)"/><path class="cls-4" d="M744,561" transform="translate(-469 -251.7)"/><path class="cls-5" d="M612.4,442.94l153.48,88.91a36.81,36.81,0,0,1,13.43,50.26h0A36.82,36.82,0,0,1,729,595.56L575.49,506.65a36.81,36.81,0,0,1-13.42-50.26h0A36.81,36.81,0,0,1,612.4,442.94Z" transform="translate(-469 -251.7)"/></svg>